#tb 0: 1/25
#media_type 0: video
#codec_id 0: rawvideo
#dimensions 0: 2560x1600
#sar 0: 0/1
0,          0,          0,        1, 16384000, 0xbf300829
0,          1,          1,        1, 16384000, 0x7beeab61
0,          2,          2,        1, 16384000, 0x5e55cd13
0,          3,          3,        1, 16384000, 0x62a54105
0,          4,          4,        1, 16384000, 0x2db21797
0,          5,          5,        1, 16384000, 0x6d9f84c1
0,          6,          6,        1, 16384000, 0x68fdacfc
0,          7,          7,        1, 16384000, 0xe2c93c1a
0,          8,          8,        1, 16384000, 0x7d011df0
0,          9,          9,        1, 16384000, 0x7524e2d3
0,         10,         10,        1, 16384000, 0x1d240868
0,         11,         11,        1, 16384000, 0x14cab858
0,         12,         12,        1, 16384000, 0x4e2e1130
0,         13,         13,        1, 16384000, 0x60c75577
0,         14,         14,        1, 16384000, 0x32dfc64b
0,         15,         15,        1, 16384000, 0x0725f9ac
0,         16,         16,        1, 16384000, 0xda0886f1
